<?xml version="1.0" encoding="utf-8"?>
<!-- Generator: Adobe Illustrator 18.1.1, SVG Export Plug-In . SVG Version: 6.00 Build 0)  -->
<svg version="1.1" xmlns="http://www.w3.org/2000/svg" xmlns:xlink="http://www.w3.org/1999/xlink" x="0px" y="0px"
	 viewBox="0 0 449.3 308.3" enable-background="new 0 0 449.3 308.3" xml:space="preserve">
<g id="Layer_7">
	<path id="outline_2_" fill-rule="evenodd" clip-rule="evenodd" fill="#3A4E55" d="M197.2-16.5"/>
	<path id="outline_3_" fill-rule="evenodd" clip-rule="evenodd" fill="#3A4E55" d="M291.1,112.5h21.6c10,0,20.2-1.8,29.7-5
		c4.6-1.6,9.8-3.8,14.4-6.5c-6-7.9-9.1-17.8-10-27.6c-1.2-13.3,1.5-30.7,10.5-41.1l4.5-5.2l5.3,4.3c13.5,10.8,24.8,25.9,26.8,43.2
		c16.2-4.8,35.2-3.6,49.5,4.6l5.9,3.4l-3.1,6c-12.1,23.6-37.4,30.9-62.1,29.6c-37,92.1-117.4,135.7-215,135.7
		c-50.4,0-96.7-18.8-123-63.6l-0.4-0.7l-3.8-7.8C33,162.1,30,140.6,32,119l0.6-6.5h36.5"/>
	<g id="body_colors">
		<path id="XMLID_95_" fill="#088CB9" d="M386.8,85c2.9-22.2-13.8-39.7-24.1-48c-11.9,13.8-13.7,49.8,4.9,65
			c-10.4,9.3-32.4,17.6-54.8,17.6H39.1c-2.2,23.5,1.9,45.1,11.3,63.6l3.1,5.7c2,3.3,4.1,6.6,6.5,9.7c0,0,0,0,0,0
			c11.2,0.7,21.6,1,31.1,0.8c0,0,0,0,0,0c18.6-0.4,33.9-2.6,45.4-6.6c1.7-0.6,3.6,0.3,4.2,2c0.6,1.7-0.3,3.6-2,4.2
			c-1.5,0.5-3.1,1-4.8,1.5c0,0,0,0,0,0c-9.1,2.6-18.8,4.3-31.4,5.1c0.7,0-0.8,0.1-0.8,0.1c-0.4,0-1,0.1-1.4,0.1
			c-4.9,0.3-10.3,0.3-15.7,0.3c-6,0-11.8-0.1-18.4-0.4l-0.2,0.1c22.8,25.6,58.4,41,103.1,41c94.6,0,174.8-41.9,210.3-136
			c25.2,2.6,49.4-3.8,60.4-25.3C422.3,75.3,399.8,78.5,386.8,85z"/>
		<path id="XMLID_94_" fill="#088CB9" d="M386.8,85c2.9-22.2-13.8-39.7-24.1-48c-11.9,13.8-13.7,49.8,4.9,65
			c-10.4,9.3-32.4,17.6-54.8,17.6H55.3c-1.1,35.9,12.2,63.2,35.8,79.7c0,0,0,0,0,0c18.6-0.4,33.9-2.6,45.4-6.6
			c1.7-0.6,3.6,0.3,4.2,2c0.6,1.7-0.3,3.6-2,4.2c-1.5,0.5-3.1,1-4.8,1.5c0,0,0,0,0,0c-9.1,2.6-19.7,4.6-32.2,5.3
			c0,0-0.3-0.3-0.3-0.3c32.2,16.5,78.9,16.5,132.4-4.1c60-23,115.8-67,154.8-117.2C387.9,84.5,387.3,84.8,386.8,85z"/>
		<path id="XMLID_93_" fill="#088CB9" d="M39.6,148.2c1.7,12.6,5.4,24.3,10.8,35.1l3.1,5.7c2,3.3,4.1,6.6,6.5,9.7
			c11.3,0.7,21.6,1,31.1,0.8c18.6-0.4,33.9-2.6,45.4-6.6c1.7-0.6,3.6,0.3,4.2,2c0.6,1.7-0.3,3.6-2,4.2c-1.5,0.5-3.1,1-4.8,1.5
			c0,0,0,0,0,0c-9.1,2.6-19.6,4.4-32.2,5.2c-0.4,0-1.2,0-1.6,0.1c-4.9,0.3-10.2,0.4-15.7,0.4c-6,0-12.1-0.1-18.6-0.4
			c22.8,25.6,58.7,41,103.4,41c81,0,151.4-30.7,192.3-98.6H39.6z"/>
	</g>
	<path id="XMLID_19_" fill-rule="evenodd" clip-rule="evenodd" fill="#D4EDF1" d="M153.6,173c5.6,0,10.2,4.6,10.2,10.2
		s-4.6,10.2-10.2,10.2c-5.6,0-10.2-4.6-10.2-10.2S148,173,153.6,173"/>
	<path id="XMLID_18_" fill-rule="evenodd" clip-rule="evenodd" fill="#3A4E55" d="M153.6,175.9c0.9,0,1.8,0.2,2.6,0.5
		c-0.9,0.5-1.5,1.5-1.5,2.6c0,1.6,1.3,3,3,3c1.1,0,2.1-0.6,2.6-1.6c0.4,0.9,0.6,1.8,0.6,2.8c0,4-3.3,7.3-7.3,7.3
		c-4,0-7.3-3.3-7.3-7.3C146.3,179.2,149.6,175.9,153.6,175.9"/>
	<path id="XMLID_16_" fill="#C0DBE0" d="M180.7,246.6c-25.3-12-39.2-28.3-46.9-46.1c-9.4,2.7-20.7,4.4-33.8,5.1
		c-4.9,0.3-10.1,0.4-15.6,0.4c-6.3,0-12.9-0.2-19.9-0.6c23.2,23.2,51.7,41,104.5,41.3C173,246.8,176.9,246.7,180.7,246.6z"/>
</g>
<g id="Layer_1" display="none">
	<g id="XMLID_5_" display="inline">
		<path id="XMLID_1_" fill="#715E7A" stroke="#C0ADC4" stroke-width="3" stroke-miterlimit="10" d="M31.6,105.6
			c0,0-14.3,153.1,150,151c164.3-2,201-81.5,249.3-159.7c13-0.3,42.5,9.5,68-26c-16.5-14.9-40-15.4-58.2-8.2
			c-8.4-33.2-21.6-43.9-34.7-51c-22.2,32.7-17,53.4,0.3,75.9l-43.2,18H31.6z"/>
		<path id="XMLID_7_" fill="#715E7A" stroke="#C0ADC4" stroke-width="3" stroke-miterlimit="10" d="M146.9,194
			c-14,14-89.8,8.5-89.8,8.5"/>
	</g>
	<g id="XMLID_14_" display="inline">
		<circle id="XMLID_12_" fill="#2D2530" stroke="#C0ADC4" stroke-width="3" stroke-miterlimit="10" cx="160.8" cy="179.7" r="9.9"/>
		<circle id="XMLID_13_" fill="#C0ADC4" cx="164.9" cy="173.9" r="4.1"/>
	</g>
</g>
<g id="Layer_4">
	<g id="XMLID_2_">
		<path id="XMLID_6_" fill="#4A708A" stroke="#AEBABB" stroke-width="3" stroke-miterlimit="10" d="M43.6,172.9
			c-10.1,7.3-20.2,14.7-30.4,21.9c-6.3,4.4-7-0.9-5.6-6.7c1.3-5.4,4.3-10.2,7.5-14.6c5-6.7,11-13.1,13.4-21.1
			c2.9-9.5,0.4-19.6-1.2-29.4c-2-12.4-2.5-25.9,3.7-36.9c4.5-7.9,17.8-18.3,18.5-27.4C43.7,60.6,31,60.9,29,55
			C34.4,41,45,27.1,59.9,25.7c1.7-0.2,3.7,0,4.5,1.5c7.2-9.3,18.9-14.8,30.7-14.4s23.1,6.7,29.6,16.5c-0.7,1.6-2.2,2.9-3.8,3.4
			c30.9,2.6,59.8,22.1,73.8,49.8c1.5,3,3.1,6.4,6.1,8c1.9,1.1,4.2,1.3,6.4,1.5c9.1,0.9,18.2,2.3,27.2,4.2c3.1,0.7,6.3,1.5,8.4,3.9
			c3.3,3.8,2,10-1.5,13.6s-8.5,5.1-13.4,6.3c-13.4,3.4-27,5.4-40.6,7.2c-13.7,1.8-27.2,5.1-40.7,8.1c-24.8,5.4-33.5,10.5-58.3,15.9
			c-6.5,1.4-23.4,8.4-36.8,16.4L43.6,172.9z"/>
		<path id="XMLID_3_" fill="#FDFDFE" stroke="#AEBABB" stroke-width="3" stroke-miterlimit="10" d="M43.2,51.3
			c-1.5-4.9-3.6-6.3,4.4-14.3c0.1-0.1,3-1.8,3.2-2c0.2-0.2,2.8-1.3,3-1.3c3-0.2,2.6-1,5.6-1.2c0.4,0,0.8,0,1,0.2
			c0.3,0.3,0.4,0.7,0.5,1.2c0.2,1.4,0.3,2.8,0.5,4.2c0.1,0.6,0.1,1.2-0.1,1.7c-0.2,0.4-0.6,0.7-1.1,0.9c-1.8,1-4.4,0.7-5.7,2.3
			C49.8,48.9,43.2,51.3,43.2,51.3z"/>
		<path id="XMLID_17_" fill="#FDFDFE" stroke="#AEBABB" stroke-width="3" stroke-miterlimit="10" d="M73.7,33.1
			c-0.2-1.4,1.3-2.4,2.5-3.1c3.9-2.2,9.8-8.7,10.2-8.6c2.5,0.4,5,0.5,7.5,0.4c2.2,0,4.2-0.2,6.2,0.6c1.8,0.7,3.4,1.9,4.8,3.1
			c0.6,0.5-1.7,2.8-1,2.7c-4.4,0.5-4,0.9-8.1,1.7c-3.3,0.6-5.4-1.3-8.6,0.4c-1.9,1-5.2,2.1-7.1,3.2c-0.6,0.4-1.2,0.9-1.8,1.2
			c-0.7,0.4-1.7,0.5-2.4,0L73.7,33.1z"/>
		<path id="XMLID_10_" fill="#27343D" stroke="#AEBABB" stroke-width="3" stroke-miterlimit="10" d="M60.3,163
			C55.2,142.5,49,117.1,46,96.1c-1.1-7.2-2.7-21.2-0.2-28c3-8.2,8.6-17.2,16.4-21.1c10.7-5.4,26.2-11.7,38.1-13.9
			c12.8-2.4,27.5,4.6,38.1,11.4c1.9,1.2,3.7,2.5,5.3,4c8.6,7.4,14.5,17.6,19.6,27.9c4.4,9.1,8.7,18.2,12.2,27.7
			c3.5,9.6,3.6,14,6.3,23.8l-40.2,8.4L94,151.4L60.3,163z"/>
	</g>
	<path id="XMLID_11_" fill="#3A4E55" d="M32,282.2c4.1,7.1,8.3,14.3,14.3,19.9c9.4,8.7,19.9,8,28.5-1.3c5.8-6.3,10.2-14,12.3-22.3
		c5.2-20.7-3.8-43.6,3.9-63.5c1.1-2.8,2.5-5.5,5-7.2c2.7-1.9,6.3-2.2,9.2-3.8c0.8-0.4,6.1-3.3,6.5-4.2s-5.7,0.3-6.6,0.1
		c-0.5-0.1,0,0-0.5,0.2c-6.2,2.4-12.6,4.9-17.6,9.4c-8.6,7.8-11.3,20.1-12.4,31.6c-1.1,11.5-1.1,23.5-6,34.1
		c-0.3,0.6-0.6,1.2-1.1,1.6c-1.3,0.9-3.1-0.1-4.3-1.1c-3.2-2.5-6.1-5.3-8.9-8.2c-0.8-0.9-1.7-1.9-2.9-2.3c-2-0.6-4.1,0.6-5.6,2.1
		c-3.4,3.4-7.1,6.4-10.8,9.6c-1.6,1.4-3.4,3-3.6,5.2"/>
	<g>
	</g>
	<g>
	</g>
	<g>
	</g>
	<g>
	</g>
	<g>
	</g>
	<g>
	</g>
</g>
</svg>
